<?xml version="1.0" encoding="UTF-8"?>
<!DOCTYPE svg PUBLIC "-//W3C//DTD SVG 1.1//EN" "http://www.w3.org/Graphics/SVG/1.1/DTD/svg11.dtd">
<!-- Creator: CorelDRAW 2018 -->
<svg xmlns="http://www.w3.org/2000/svg" xml:space="preserve" width="412.25mm" height="120mm" version="1.1" style="shape-rendering:geometricPrecision; text-rendering:geometricPrecision; image-rendering:optimizeQuality; fill-rule:evenodd; clip-rule:evenodd"
viewBox="0 0 39319.74 11445.41"
 xmlns:xlink="http://www.w3.org/1999/xlink">
 <defs>
  <style type="text/css">
   <![CDATA[
    .fil1 {fill:#0E31AE}
    .fil0 {fill:#F6461D}
    .fil3 {fill:#1B2850;fill-rule:nonzero}
    .fil2 {fill:#F6461D;fill-rule:nonzero}
   ]]>
  </style>
 </defs>
 <g id="Слой_x0020_1">
  <metadata id="CorelCorpID_0Corel-Layer"/>
  <path class="fil0" d="M2276.85 9426.62c-245.9,-130.37 -291.38,-421.32 -205,-666.79l973.84 -2767.74c86.75,-246.54 292.37,-338.61 541.61,-262.74l2710.08 825.21c117.75,35.83 223.92,108.88 287.77,218.14 54.82,93.87 68.29,206.31 32.06,309.45l-1215.62 3456.83c-81.85,232.78 -336.31,345.22 -555.44,230.65l-2569.3 -1343.04 0 0.03z"/>
  <path class="fil1" d="M6823.83 7033.34l-96.89 275.42c-384.27,1152.82 -812.82,2310.14 -1216.8,3458.31 -81.88,232.75 -335.79,345.55 -554.84,231.02l-2569.37 -1343 -212.23 -110.93c8.54,173.3 97.26,330.6 275.82,425.26l2717.9 1420.69c231.8,121.17 479.63,39.25 566.17,-206.97l1285.92 -3656.76c38.33,-109.08 24.11,-228.06 -33.9,-327.35 -40.27,-68.91 -96.5,-124.23 -161.73,-165.68l-0.04 -0.01z"/>
  <path class="fil0" d="M104.28 6781.89c-103.37,-62.93 -126.06,-207.16 -84.91,-324.07l514.78 -1463.05c41.32,-117.43 126.65,-157.73 232.85,-125.44l1101.06 335.24c50.16,15.27 94.7,52.06 121.46,104.78 23.02,45.27 30.71,100.35 13.47,149.39l-589.53 1675.47c-38.95,110.72 -137.82,152.11 -236.4,109.68l-1072.78 -461.99 0 -0.01z"/>
  <path class="fil1" d="M99.41 6946.26l104.69 45.09 1072.78 461.99c98.57,42.43 197.44,1.05 236.4,-109.68l577.02 -1639.93 70.32 -199.54c85.27,44.27 152.97,106.95 182.89,198.23 35.21,107.27 45.46,192.57 10.67,291.48l-609.6 1732.7c-44.27,125.94 -156.91,173.07 -268.99,124.82l-1156.7 -498.15c-113.91,-69.37 -257,-274.96 -219.51,-407.01l0.04 -0.02z"/>
  <path class="fil0" d="M756.74 3481.83c-113.75,-30.03 -126.85,-207.69 -85.79,-324.59l702.82 -2000.76c41.25,-117.46 117.55,-140.55 227.7,-126.82l1662.77 207.43c51.96,6.47 94.76,54.07 121.46,106.69 22.96,45.2 30.68,100.41 13.47,149.39l-808.82 2298.72c-38.92,110.59 -133.59,138.48 -237.25,111.12l-1596.39 -421.16 0.03 0z"/>
  <path class="fil1" d="M3500.69 1698.11l75.19 -213.7c137.86,19.31 261.23,297.43 181.05,525.32l-840.45 2388.51c-38.86,110.43 -133.75,138.41 -237.25,111.12l-1748.72 -461.4c-70.39,-18.52 -76.33,-20 -124.69,-84.38 -60.04,-79.95 -99.82,-224.47 -74.53,-310.27l126.95 33.47 1596.39 421.16c103.67,27.36 198.33,-0.5 237.25,-111.12l808.82 -2298.72 0 0.01z"/>
  <path class="fil0" d="M3988.34 4334.49c-268.52,-70.85 -242.9,-337.37 -156.52,-582.83l712.68 -2025.47c86.75,-246.52 283.04,-294.5 541.51,-262.28l2039.38 254.43c304.23,37.97 265.67,261.96 217.48,398.96l-878.16 2495.77c-81.83,232.55 -307.25,293.72 -546.15,230.65l-1930.2 -509.25 -0.03 0.02z"/>
  <path class="fil1" d="M7453.11 2322.79l111.58 -317.17c178.75,151.58 236.99,442.57 178.72,608.19l-898.98 2555.05c-95.98,272.76 -359.81,344.59 -640.02,270.66l-2072.53 -546.8c-157.2,-41.49 -268.36,-218.66 -285.99,-417.58l252.16 66.55 1930.2 509.25c238.87,63.04 464.32,1.91 546.15,-230.68 290.13,-824.65 610.65,-1668.85 878.75,-2497.44l-0.05 -0.03z"/>
  <path class="fil0" d="M7916.08 1646.28c-99.46,-12.42 -146.8,-212.39 -103.37,-336.15l413.74 -1178.28c43.65,-124.29 148.69,-136.02 279.95,-130.9l1315.58 51.64c122.75,4.83 203.91,170.8 150.34,323.08l-406.71 1155.88c-71.28,202.6 -326,279.85 -529.32,254.5l-1120.21 -139.77 0 -0.01z"/>
  <path class="fil1" d="M8014.89 1828.8l-130.73 -16.33c-44.31,163.87 226.05,400.04 438.14,426.51l1045.25 130.47c203.25,25.36 458.11,-52 529.32,-254.5l419.94 -1193.49c57.55,-163.55 -70.13,-543.74 -177.38,-552.78l-67.11 189.66 -406.71 1155.88c-71.28,202.6 -326,279.85 -529.32,254.5l-1121.45 -139.93 0.04 0z"/>
  <path class="fil2" d="M37586.78 5829.08c-195.87,0 -360.76,70.95 -494.71,212.88 -133.92,141.89 -200.9,346.8 -200.9,614.63 0,267.83 66.95,471.71 200.9,611.64 133.92,139.93 298.81,209.89 494.71,209.89 195.9,0 359.77,-69.96 491.71,-209.89 131.91,-139.89 197.87,-343.81 197.87,-611.64 0,-267.83 -65.95,-472.73 -197.87,-614.63 -131.91,-141.93 -295.82,-212.88 -491.71,-212.88zm0 -887.45c331.82,0 628.62,68.95 890.47,206.87 261.85,137.93 467.71,336.78 617.61,596.62 149.92,259.85 224.87,563.69 224.87,911.46 0,347.78 -74.96,651.62 -224.87,911.46 -149.92,259.82 -355.8,458.7 -617.61,596.63 -261.85,137.93 -558.66,206.87 -890.47,206.87 -331.78,0 -629.6,-68.95 -893.47,-206.87 -263.85,-137.93 -470.73,-336.81 -620.61,-596.63 -149.92,-259.85 -224.87,-563.69 -224.87,-911.46 0,-347.78 74.96,-651.62 224.87,-911.46 149.92,-259.84 356.78,-458.73 620.61,-596.62 263.83,-137.93 561.68,-206.87 893.47,-206.87zm-3148.11 671.59c127.94,-203.84 292.83,-365.79 494.71,-485.71 201.88,-119.92 420.73,-179.9 656.6,-179.9l0 1097.34 -293.81 0c-271.84,0 -482.72,57.97 -632.63,173.89 -149.92,115.91 -224.87,311.81 -224.87,587.63l0 1523.07 -1025.38 0 0 -3345.99 1025.38 0 0 629.6 0 0.07zm-3334.01 227.85c-215.87,0 -392.75,72.95 -530.68,218.86 -137.93,145.91 -206.87,344.79 -206.87,596.66 0,247.83 68.95,445.73 206.87,593.64 137.93,147.91 314.81,221.88 530.68,221.88 219.88,0 396.76,-71.96 530.68,-215.87 133.92,-143.9 200.9,-343.81 200.9,-599.65 0,-255.84 -66.97,-455.72 -200.9,-599.65 -133.92,-143.9 -310.83,-215.87 -530.68,-215.87l0 0.02zm329.82 -899.44c275.84,0 522.65,68.95 740.57,206.87 217.87,137.93 389.76,335.79 515.69,593.63 125.94,257.85 188.91,562.67 188.91,914.45 0,347.78 -62.97,651.62 -188.91,911.46 -125.94,259.82 -297.82,458.7 -515.69,596.63 -217.87,137.93 -464.71,206.87 -740.57,206.87 -255.84,0 -475.72,-57.97 -659.6,-173.89 -183.88,-115.91 -317.83,-273.84 -401.78,-473.72l0 2200.67 -1025.38 0 0 -4941.03 1025.38 0 0 605.62c83.95,-199.87 217.87,-357.76 401.78,-473.72 183.88,-115.91 403.76,-173.89 659.6,-173.89l0 0.06zm-2620.42 2362.56l0 1025.38 -1061.33 0 0 -1025.38 1061.33 0z"/>
  <path class="fil3" d="M27356.96 7448.09l0 881.48 -461.73 0c-391.77,0 -696.58,-96.93 -914.45,-290.83 -217.87,-193.87 -326.82,-514.67 -326.82,-962.41l0 -1229.26 -449.74 0 0 -863.47 449.74 0 0 -821.49 1025.38 0 0 821.49 671.62 0 0 863.47 -671.62 0 0 1247.25c0,131.91 26.96,223.85 80.97,275.82 53.97,51.96 144.92,77.94 272.83,77.94l323.8 0 0.03 0zm-4359.39 -1607.02c-219.88,0 -396.76,71.96 -530.68,215.87 -133.92,143.9 -200.9,343.81 -200.9,599.65 0,255.84 66.95,455.72 200.9,599.65 133.92,143.9 310.8,215.87 530.68,215.87 215.87,0 392.78,-73.98 530.7,-221.88 137.93,-147.91 206.87,-345.78 206.87,-593.64 0,-251.87 -68.95,-450.72 -206.87,-596.66 -137.93,-145.91 -314.81,-218.86 -530.7,-218.86l0 -0.02zm-329.78 -899.44c255.84,0 475.72,57.97 659.6,173.89 183.88,115.91 319.79,273.84 407.76,473.72l0 -605.62 1019.39 0 0 3345.99 -1019.39 0 0 -605.62c-87.97,199.87 -223.85,357.76 -407.76,473.72 -183.88,115.91 -403.76,173.89 -659.6,173.89 -275.84,0 -522.69,-68.95 -740.57,-206.87 -217.87,-137.93 -389.76,-336.81 -515.69,-596.63 -125.94,-259.85 -188.91,-563.69 -188.91,-911.46 0,-351.78 62.97,-656.6 188.91,-914.45 125.94,-257.84 297.82,-455.71 515.69,-593.63 217.87,-137.93 464.71,-206.87 740.57,-206.87l0 -0.06zm-2854.28 671.59c127.94,-203.84 292.83,-365.79 494.71,-485.71 201.88,-119.92 420.73,-179.9 656.6,-179.9l0 1097.34 -293.81 0c-271.84,0 -482.72,57.97 -632.63,173.89 -149.92,115.91 -224.87,311.81 -224.87,587.63l0 1523.07 -1025.38 0 0 -3345.99 1025.38 0 0 629.6 0 0.07zm-3292 215.86c-195.87,0 -360.79,70.95 -494.71,212.88 -133.92,141.89 -200.9,346.8 -200.9,614.63 0,267.83 66.97,471.71 200.9,611.64 133.92,139.93 298.81,209.89 494.71,209.89 195.87,0 359.77,-69.96 491.71,-209.89 131.9,-139.89 197.86,-343.81 197.86,-611.64 0,-267.83 -65.95,-472.73 -197.86,-614.63 -131.91,-141.93 -295.82,-212.88 -491.71,-212.88zm0 -887.45c331.82,0 628.61,68.95 890.46,206.87 261.85,137.93 467.71,336.78 617.61,596.62 149.92,259.85 224.87,563.69 224.87,911.46 0,347.78 -74.92,651.62 -224.87,911.46 -149.92,259.82 -355.8,458.7 -617.61,596.63 -261.82,137.93 -558.65,206.87 -890.46,206.87 -331.82,0 -629.6,-68.95 -893.47,-206.87 -263.85,-137.93 -470.73,-336.81 -620.64,-596.63 -149.92,-259.85 -224.87,-563.69 -224.87,-911.46 0,-347.78 74.96,-651.62 224.87,-911.46 149.92,-259.84 356.78,-458.73 620.64,-596.62 263.83,-137.93 561.65,-206.87 893.47,-206.87zm-3849.67 4101.53l251.87 0c107.93,0 185.88,-23 233.87,-68.98 47.98,-45.98 71.96,-122.91 71.96,-230.84l0 -3759.73 1031.38 0 0 3747.74c0,795.51 -399.74,1193.29 -1199.3,1193.29l-389.76 0 0 -881.44 -0.02 -0.04zm1067.36 -4467.31c-183.88,0 -331.82,-50.98 -443.73,-152.9 -111.95,-101.96 -167.88,-228.88 -167.88,-380.76 0,-155.89 55.97,-284.82 167.88,-386.77 111.95,-101.96 259.85,-152.9 443.73,-152.9 183.88,0 331.82,50.98 443.73,152.9 111.95,101.96 167.88,230.84 167.88,386.77 0,151.88 -55.97,278.84 -167.88,380.76 -111.95,101.96 -259.85,152.9 -443.73,152.9zm-1229.27 407.73l0 3345.99 -1025.38 0 0 -3345.99 1025.38 0zm-1121.32 -941.42c0,-155.89 55.97,-284.82 167.88,-386.77 111.95,-101.96 259.85,-152.9 443.73,-152.9 183.88,0 331.82,50.98 443.73,152.9 111.95,101.96 167.88,230.84 167.88,386.77 0,151.88 -55.97,278.84 -167.88,380.76 -111.95,101.96 -259.85,152.9 -443.73,152.9 -183.88,0 -331.82,-50.98 -443.73,-152.9 -111.95,-101.96 -167.88,-228.88 -167.88,-380.76zm-479.7 3405.93l0 881.48 -461.73 0c-391.77,0 -696.58,-96.93 -914.45,-290.83 -217.87,-193.87 -326.8,-514.67 -326.8,-962.41l0 -1229.26 -449.74 0 0 -863.47 449.74 0 0 -821.49 1025.38 0 0 821.49 671.59 0 0 863.47 -671.59 0 0 1247.25c0,131.91 26.96,223.85 80.97,275.82 53.97,51.96 144.92,77.94 272.83,77.94l323.8 0z"/>
 </g>
</svg>
