<?xml version="1.0" encoding="UTF-8"?>
<!DOCTYPE svg PUBLIC "-//W3C//DTD SVG 1.1//EN" "http://www.w3.org/Graphics/SVG/1.1/DTD/svg11.dtd">
<!-- Creator: CorelDRAW 2018 -->
<svg xmlns="http://www.w3.org/2000/svg" xml:space="preserve" width="451.323mm" height="500mm" version="1.1" style="shape-rendering:geometricPrecision; text-rendering:geometricPrecision; image-rendering:optimizeQuality; fill-rule:evenodd; clip-rule:evenodd"
viewBox="0 0 26913.9 29816.65"
 xmlns:xlink="http://www.w3.org/1999/xlink">
 <defs>
  <style type="text/css">
   <![CDATA[
    .fil1 {fill:#0E31AE}
    .fil0 {fill:#F6461D}
   ]]>
  </style>
 </defs>
 <g id="Слой_x0020_1">
  <metadata id="CorelCorpID_0Corel-Layer"/>
  <g id="_663031304">
   <g>
    <path class="fil0" d="M5931.46 24557.46c-640.61,-339.61 -759.06,-1097.58 -534.05,-1737.05l2536.97 -7210.26c225.99,-642.24 761.68,-882.1 1410.97,-684.45l7060.08 2149.79c306.77,93.37 583.36,283.61 749.72,568.21 142.83,244.53 177.89,537.49 83.47,806.16l-3166.84 9005.49c-213.25,606.42 -876.18,899.34 -1447,600.91l-6693.33 -3498.79z"/>
    <path class="fil1" d="M17776.86 18322.69l-252.48 717.53c-1001.08,3003.26 -2117.54,6018.22 -3169.95,9009.31 -213.32,606.3 -874.75,900.15 -1445.48,601.82l-6693.57 -3498.67 -552.85 -288.98c22.24,451.48 253.36,861.21 718.56,1107.83l7080.44 3701.07c603.83,315.66 1249.46,102.22 1474.99,-539.19l3350.01 -9526.33c99.87,-284.19 62.81,-594.14 -88.3,-852.8 -104.91,-179.54 -251.45,-323.61 -421.38,-431.58z"/>
   </g>
   <g>
    <path class="fil0" d="M271.64 17667.7c-269.29,-163.94 -328.38,-539.68 -221.21,-844.25l1341.09 -3811.48c107.64,-305.91 330,-410.96 606.57,-326.81l2868.38 873.38c130.64,39.76 246.7,135.65 316.46,272.97 59.94,117.9 80.02,261.43 35.11,389.2l-1535.79 4364.84c-101.45,288.46 -359.09,396.32 -615.88,285.73l-2794.72 -1203.57z"/>
    <path class="fil1" d="M258.92 18095.88l272.75 117.5 2794.73 1203.56c256.78,110.55 514.37,2.74 615.87,-285.73l1503.25 -4272.27 183.18 -519.84c222.15,115.32 398.45,278.64 476.46,516.38 91.76,279.5 118.44,501.7 27.8,759.38l-1588.09 4513.9c-115.41,328.08 -408.79,450.89 -700.75,325.14l-3013.34 -1297.75c-296.75,-180.69 -669.54,-716.25 -571.85,-1060.26z"/>
   </g>
   <g>
    <path class="fil0" d="M1971.39 9070.52c-296.32,-78.18 -330.48,-541.02 -223.48,-845.62l1830.96 -5212.22c107.47,-305.97 306.27,-366.17 593.11,-330.43l4331.75 540.42c135.4,16.87 246.83,140.82 316.47,277.96 59.78,117.76 79.97,261.61 35.1,389.19l-2107.08 5988.41c-101.36,288.17 -347.98,360.75 -618.05,289.49l-4158.78 -1097.2z"/>
    <path class="fil1" d="M9119.68 4423.75l195.9 -556.69c359.13,50.34 680.55,774.83 471.63,1368.54l-2189.53 6222.35c-101.19,287.69 -348.41,360.63 -618.05,289.49l-4555.62 -1201.98c-183.38,-48.24 -198.84,-52.09 -324.84,-219.84 -156.4,-208.32 -260.07,-584.79 -194.15,-808.35l330.74 87.19 4158.78 1097.2c270.06,71.26 516.68,-1.32 618.05,-289.49l2107.08 -5988.41z"/>
   </g>
   <g>
    <path class="fil0" d="M10390.11 11291.88c-699.55,-184.57 -632.76,-878.85 -407.74,-1518.36l1856.58 -5276.55c225.96,-642.2 737.34,-767.21 1410.7,-683.27l5312.84 662.82c792.51,98.88 692.12,682.39 566.52,1039.32l-2287.69 6501.79c-213.14,605.86 -800.45,765.14 -1422.77,600.91l-5028.42 -1326.66z"/>
    <path class="fil1" d="M19416.23 6051.17l290.69 -826.24c465.62,394.91 617.36,1152.96 465.57,1584.38l-2342 6656.21c-249.99,710.57 -937.34,897.67 -1667.34,705.06l-5399.23 -1424.47c-409.51,-108.03 -699.09,-569.67 -745.07,-1087.89l656.94 173.35 5028.45 1326.66c622.32,164.21 1209.62,4.96 1422.77,-600.92 755.88,-2148.28 1590.87,-4347.55 2289.23,-6506.12z"/>
   </g>
   <g>
    <path class="fil0" d="M20622.35 4288.77c-259.13,-32.33 -382.44,-553.32 -269.26,-875.73l1077.86 -3069.57c113.71,-323.83 387.41,-354.35 729.29,-340.99l3427.25 134.55c319.71,12.55 531.24,444.99 391.66,841.65l-1059.5 3011.2c-185.69,527.75 -849.24,729.08 -1379,662.98l-2918.3 -364.09z"/>
    <path class="fil1" d="M20879.73 4764.3l-340.55 -42.48c-115.46,426.93 588.93,1042.12 1141.43,1111.08l2723.04 339.87c529.49,66.1 1193.44,-135.47 1379,-662.96l1094 -3109.19c149.91,-426.04 -182.7,-1416.54 -462.07,-1440.06l-174.84 494.1 -1059.5 3011.2c-185.69,527.74 -849.25,729.06 -1379,662.97l-2921.5 -364.51z"/>
   </g>
  </g>
 </g>
</svg>
